# xmcd CD database file
#
# Track frame offsets:
#	150
#	21813
#	48004
#	69091
#	94224
#	119488
#	125143
#	154555
#	194570
#	211755
#
# Disc length: 2856 seconds
#
# Revision: 0
# Processed by: cddbd v1.4PL0 Copyright (c) Steve Scherf et al.
# Submitted via: CDex 1.50Beta7
#
DISCID=830b260a
DTITLE=Lolita - Novi Sad Jazz 2001
DYEAR=2002
DGENRE=Jazz
TTITLE0=Sony
TTITLE1=Turci
TTITLE2=Struci
TTITLE3=Nikoli
TTITLE4=Sedem
TTITLE5=Primi
TTITLE6=15 - fifteen
TTITLE7=IziGa
TTITLE8=5,3
TTITLE9=
EXTD=YEAR: 2002
EXTT0=
EXTT1=
EXTT2=
EXTT3=
EXTT4=
EXTT5=
EXTT6=
EXTT7=
EXTT8=
EXTT9=
PLAYORDER=
